<?xml version="1.0" encoding="UTF-8" standalone="no"?>
<svg
   xmlns:dc="http://purl.org/dc/elements/1.1/"
   xmlns:cc="http://creativecommons.org/ns#"
   xmlns:rdf="http://www.w3.org/1999/02/22-rdf-syntax-ns#"
   xmlns:svg="http://www.w3.org/2000/svg"
   xmlns="http://www.w3.org/2000/svg"
   xmlns:sodipodi="http://sodipodi.sourceforge.net/DTD/sodipodi-0.dtd"
   xmlns:inkscape="http://www.inkscape.org/namespaces/inkscape"
   version="1.0"
   width="172"
   height="75"
   viewBox="0 0 137.6 60"
   preserveAspectRatio="xMidYMid meet"
   id="svg2"
   sodipodi:docname="logo.svg"
   inkscape:version="0.48.3.1 r9886">
  <defs
     id="defs14" />
  <sodipodi:namedview
     pagecolor="#ffffff"
     bordercolor="#666666"
     borderopacity="1"
     objecttolerance="10"
     gridtolerance="10"
     guidetolerance="10"
     id="namedview12"
     showgrid="false"
     inkscape:zoom="3.8089485"
     inkscape:cx="-46.680166"
     inkscape:cy="54.912483"
     inkscape:window-width="1920"
     inkscape:window-height="1025"
     inkscape:window-x="0"
     inkscape:window-y="27"
     inkscape:window-maximized="1"
     inkscape:current-layer="svg2" />
  <metadata
     id="metadata4">
Created by potrace 1.10, written by Peter Selinger 2001-2011
<rdf:RDF>
  <cc:Work
     rdf:about="">
    <dc:format>image/svg+xml</dc:format>
    <dc:type
       rdf:resource="http://purl.org/dc/dcmitype/StillImage" />
  </cc:Work>
</rdf:RDF>
</metadata>
  <g
     id="g4600">
    <path
       d="M 14.257329,0.09548326 C 11.613504,0.47588978 9.5497984,1.7027008 8.7414346,3.3574692 7.7428674,5.4021542 8.3420077,8.0079389 10.139429,9.3869125 c 2.016154,1.5406465 5.677567,2.1207665 9.025144,1.4455445 4.07035,-0.827384 6.286218,-3.4331686 5.553935,-6.5429919 C 24.509285,3.3955098 24.147899,2.7678391 23.444147,2.0831073 22.017622,0.67560321 19.649592,-0.01863869 16.349565,3.81633e-4 15.512671,0.0098918 14.571164,0.04793245 14.257329,0.09548326 z"
       id="path8"
       style="fill:#09aeee;fill-opacity:1;stroke:none"
       inkscape:connector-curvature="0" />
    <path
       d="m 26.040421,18.59275 -4.555368,12.515375 -0.5611,0.656201 c -1.112689,1.321913 -2.596274,2.31097 -3.632882,2.425092 -1.397994,0.171183 -2.32999,-0.798854 -1.987624,-2.063706 0.07608,-0.285305 1.588197,-4.498307 3.366598,-9.358 L 21.89399,13.92326 14.371451,13.89473 c -4.127411,-0.0095 -7.532049,0 -7.5510694,0.01902 -0.076081,0.07608 -6.43838032,17.441639 -6.61907342,18.07882 -0.16167277,0.542079 -0.19971342,0.951016 -0.19971342,2.234888 -0.00951017,1.359954 0.01902032,1.664279 0.20922358,2.31097 0.77032321,2.672356 2.69137616,4.574388 5.54442506,5.477854 2.2348883,0.713262 5.4493236,0.637181 8.0360876,-0.190203 1.445545,-0.465998 3.195415,-1.283872 4.393695,-2.063706 0.209224,-0.133142 0.218734,-0.133142 0.123633,0.08559 -0.114122,0.266284 -7.332336,20.066444 -7.332336,20.123505 0,0.0095 3.395128,0.02853 7.541559,0.02853 l 7.541559,0 3.271496,-9.044165 c 1.797421,-4.964305 3.300027,-9.053675 3.338068,-9.082206 0.03804,-0.01902 0.561099,0.104612 1.150729,0.285305 2.30146,0.694242 2.88158,0.770323 5.734629,0.770323 2.158807,-0.0095 2.776967,-0.03804 3.899167,-0.218733 4.022798,-0.627671 7.760293,-2.016155 10.841585,-4.022799 1.455055,-0.941506 2.101746,-1.474076 3.442679,-2.776968 l 1.16024,-1.141219 0.05706,0.370896 c 0.161673,1.027098 0.485019,2.234888 0.722773,2.748437 0.998567,2.092236 3.851616,3.984758 7.313315,4.850183 4.203492,1.055628 9.852529,0.656201 13.837287,-0.960526 3.51876,-1.436035 6.181606,-3.851616 7.665191,-6.951929 0.199714,-0.427958 0.370897,-0.827385 0.370897,-0.893956 0,-0.06657 0.256774,0.399427 0.57061,1.017588 1.968603,3.946717 6.076994,6.40985 12.220562,7.332335 0.92248,0.142653 1.72134,0.171183 4.23202,0.161673 2.7104,0 3.26199,-0.02853 4.46978,-0.209223 3.49974,-0.54208 6.1816,-1.455055 8.65424,-2.948151 1.67379,-1.008077 3.50925,-2.567744 4.60292,-3.908677 l 0.53257,-0.656201 0.8369,-0.05706 c 4.213,-0.332856 8.26433,-1.940073 10.53726,-4.193982 0.73228,-0.722773 1.36946,-1.635748 1.36946,-1.949584 -0.01,-0.123632 -3.30954,-2.634315 -3.3666,-2.548723 -0.01,0.0095 -0.16167,0.256774 -0.33285,0.523059 -0.98906,1.578687 -3.74701,3.166884 -6.06749,3.49023 -0.48501,0.06657 -0.46599,0.180693 -0.25677,-1.397994 0.19971,-1.483586 0.13314,-3.975249 -0.14265,-5.297161 -1.03661,-5.097448 -4.62194,-8.387964 -10.39461,-9.557714 -2.04469,-0.408937 -2.83403,-0.475508 -5.68708,-0.475508 -2.89109,0 -4.10839,0.114122 -6.40034,0.57061 -6.600052,1.340933 -11.716519,4.679 -14.236713,9.291429 -0.285305,0.523059 -0.380406,0.637181 -0.380406,0.456488 0,-0.133143 -0.104612,-1.350443 -0.228244,-2.710397 -0.228244,-2.37754 -0.370896,-4.507817 -0.494529,-7.113602 -0.04755,-1.065138 -0.07608,-1.20779 -0.218733,-1.16975 -0.08559,0.02853 -3.414149,0.846405 -7.398907,1.825952 l -7.246744,1.78791 -3.357088,4.63145 -3.357087,4.631449 -0.808364,0.06657 c -1.065138,0.08559 -2.425092,0.437468 -3.233456,0.827384 l -0.656201,0.323346 0.06657,-0.437468 c 0.03804,-0.237754 0.06657,-1.245831 0.05706,-2.234888 -0.0095,-1.635748 -0.02853,-1.892522 -0.256774,-2.757947 -0.646691,-2.434602 -2.282439,-4.707531 -4.336634,-6.019933 -3.4617,-2.215868 -8.454535,-2.643826 -12.772149,-1.103179 -0.874935,0.313835 -2.196848,0.970036 -2.795988,1.369463 -0.247265,0.180693 -0.427958,0.256775 -0.399427,0.180693 0.285305,-0.760813 3.404638,-9.4911424 3.404638,-9.5386932 0,-0.02853 -3.376108,-0.057061 -7.494008,-0.057061 l -7.494009,0 -4.564878,12.5153742 z m 87.483989,-1.616727 c 0.64669,0.218733 1.39799,0.931996 1.73085,1.664278 0.31384,0.694242 0.48502,1.683299 0.38992,2.282439 -0.0571,0.370897 -0.10461,0.446978 -0.3709,0.54208 -0.49453,0.180693 -1.83546,1.008077 -2.50117,1.559666 -2.09224,1.692809 -3.09081,4.355655 -2.55824,6.856828 0.20923,1.017587 0.73229,1.902032 1.64526,2.805498 l 0.79886,0.798854 -0.60865,0.998567 c -1.85449,3.090803 -3.65191,4.336634 -6.01994,4.184471 -2.32999,-0.152162 -3.29051,-1.093668 -3.56631,-3.490229 -0.31383,-2.795988 1.01759,-7.998048 3.10982,-12.096928 1.17926,-2.32048 2.92913,-4.536348 4.2986,-5.439813 0.58012,-0.389917 1.45505,-0.751303 2.00664,-0.855915 0.36139,-0.06657 1.13171,0.02853 1.64526,0.190204 z m -66.999098,2.025664 c 0.694242,0.351876 1.217301,1.16975 1.445545,2.215868 0.161673,0.722773 0.06657,2.624805 -0.180693,3.785045 -0.627671,2.853049 -2.187338,6.571523 -3.861126,9.215348 -2.87207,4.536348 -6.115035,6.362299 -7.902946,4.460267 -0.960526,-1.008078 -1.027097,-2.234889 -0.275795,-5.21157 1.093669,-4.355654 3.708964,-9.766937 5.934342,-12.306151 1.768891,-2.016154 3.566311,-2.815008 4.840673,-2.158807 z m 29.025018,7.094582 c 0.361386,6.019933 -0.732283,9.985671 -3.176395,11.573868 -0.313835,0.199714 -0.912975,0.475508 -1.331423,0.618161 -0.665711,0.218734 -0.931996,0.247264 -1.959093,0.256774 -1.008077,0 -1.274362,-0.02853 -1.71183,-0.209223 -0.446977,-0.180693 -1.79742,-1.112689 -1.806931,-1.255342 0,-0.02853 0.285305,-0.133142 0.637181,-0.228244 0.827385,-0.237754 2.196848,-0.912975 2.938641,-1.436034 1.7784,-1.274362 2.634315,-3.242966 2.3395,-5.420793 -0.08559,-0.665712 -0.275795,-1.293382 -0.646691,-2.092236 -0.01902,-0.05706 0.951016,-1.359953 2.168317,-2.89109 l 2.215868,-2.795988 0.114122,0.989057 c 0.05706,0.54208 0.161673,1.844972 0.218734,2.89109 z"
       id="path10"
       style="fill:#363636;stroke:none;fill-opacity:1"
       inkscape:connector-curvature="0" />
  </g>
</svg>
