<svg xmlns="http://www.w3.org/2000/svg" viewBox="0 0 380 118.68"><defs><style>.cls-1{fill:#fff;}.cls-2{opacity:0.6;}</style></defs><title>wdw-main-white</title><g id="Layer_2" data-name="Layer 2"><g id="Layer_1-2" data-name="Layer 1"><path class="cls-1" d="M17.12,118.19,13.45,94.38h-.12L9.5,118.19H4.57L0,88.27H3.51l3.54,26.09h.13l4.28-26.09h4l4.12,26.05h.16l3.39-26h3.46l-4.52,29.92Z"/><path class="cls-1" d="M35.47,103.27c0-10.27,2.61-15.53,8.89-15.53s8,5.14,8,15c0,10.64-2,16-8.61,16S35.47,113.55,35.47,103.27ZM48.6,103c0-8.08-.58-12.11-4.37-12.11-4,0-4.93,4.2-4.93,12.27,0,8.24.61,12.48,4.69,12.48S48.6,111.34,48.6,103Z"/><path class="cls-1" d="M72.24,118.19,66.7,93.08h-.17v25.11h-3.3V88.27h5.38L74,113.51h.13l5.21-25.24h5.39v29.92H81.41V93h-.2l-5.54,25.15Z"/><path class="cls-1" d="M108.12,104.29H99.76v10.89h10.07v3H96.21V88.27h12.84v3H99.76v10.07h8.36Z"/><path class="cls-1" d="M132.17,118.19,123,93.65l-.08,0v24.5h-3.23V88.27h4.65l8.81,24.13h.12V88.27h3.18v29.92Z"/><g class="cls-2"><path class="cls-1" d="M154.39,118.19V88.27h4.24c9.5,0,11.66,4.61,11.66,14.43,0,11.17-2.12,15.49-11.66,15.49Zm5-3c5.75,0,7.14-3.06,7.14-12.23,0-8.08-1.22-11.74-7.18-11.74h-1.42v24Z"/><path class="cls-1" d="M180.48,103.27c0-10.27,2.61-15.53,8.89-15.53s8,5.14,8,15c0,10.64-2,16-8.6,16S180.48,113.55,180.48,103.27Zm13.13-.28c0-8.08-.57-12.11-4.36-12.11-4,0-4.94,4.2-4.94,12.27,0,8.24.61,12.48,4.69,12.48S193.61,111.34,193.61,103Z"/><path class="cls-1" d="M213.13,115.34h2.49v2.85H207.1v-2.85h2.49V91.12H207.1V88.27h8.52v2.85h-2.49Z"/><path class="cls-1" d="M238.49,118.19l-9.21-24.54-.08,0v24.5H226V88.27h4.64l8.81,24.13h.12V88.27h3.18v29.92Z"/></g><g class="cls-2"><path class="cls-1" d="M261.85,103.6h7.95v15.08h-2.6l-.37-3.58a5.46,5.46,0,0,1-5.42,3.58c-5.79,0-7.87-5-7.87-14.76,0-11,2.93-16.14,9-16.14,5.42,0,7.38,4,7.26,10.8l-3.39.33c0-6-1.26-8-4-8-3.55,0-5.06,3.46-5.06,12.68,0,8.07,1.06,12.11,4.73,12.11,2.77,0,4.2-3.1,4.28-7.3v-1.75h-4.53Z"/></g><path class="cls-1" d="M302.46,118.19l-3.67-23.81h-.12l-3.83,23.81H289.9l-4.56-29.92h3.5l3.55,26.09h.12l4.28-26.09h4l4.12,26.05h.16l3.38-26h3.47l-4.53,29.92Z"/><path class="cls-1" d="M333.36,104.29H325v10.89h10.07v3H321.46V88.27H334.3v3H325v10.07h8.36Z"/><path class="cls-1" d="M348.48,115.18h9.18v3H344.94V88.27h3.54Z"/><path class="cls-1" d="M370.83,115.18H380v3H367.28V88.27h3.55Z"/><path class="cls-1" d="M186.85,17.3c0-.23,0-.44,0-.63a6.05,6.05,0,0,1,.75-2.49,5.31,5.31,0,0,0,.37-.93.49.49,0,0,0-.13-.51,2.27,2.27,0,0,1-.33-.49c-.09-.18-.17-.39-.25-.58l-.06-.16c-.62.81-2.1,2.63-3,2.82l-.27,0A16.43,16.43,0,0,1,180,13.26a1.19,1.19,0,0,1-.52.33c-.52,3.1-.91,3.84-1.17,4.13-.63.72-2.95,1.09-3.95,1.21a.75.75,0,0,0,.11.13c.13.17.26.34.37.5a2.42,2.42,0,0,1,.27.54c.08.21.1.25.37.36a4.61,4.61,0,0,0,1,.15,5.93,5.93,0,0,1,2.54.6l.55.3A19.58,19.58,0,0,1,184.34,25c.87.88,3.43,3.41,4.91,4.86-.56-2.13-1.44-5.5-1.76-6.67a19.76,19.76,0,0,1-.64-5.91"/><path class="cls-1" d="M184.34,37.46A19.43,19.43,0,0,1,179.56,41l-.58.32a5.89,5.89,0,0,1-2.53.6,4.61,4.61,0,0,0-1,.15c-.27.1-.29.15-.37.36a2.42,2.42,0,0,1-.27.54,5.25,5.25,0,0,1-.37.49l-.11.14c1,.12,3.32.48,4,1.21.49.56.89,2.53,1.12,3.87a1.18,1.18,0,0,1,.83.49,14.36,14.36,0,0,1,3.66-1l.27,0c.93.19,2.41,2,3,2.82l.06-.16c.08-.2.16-.4.25-.58a2.38,2.38,0,0,1,.33-.5.47.47,0,0,0,.13-.5,5.27,5.27,0,0,0-.37-.92,6.1,6.1,0,0,1-.75-2.5c0-.19,0-.4,0-.63a19.73,19.73,0,0,1,.64-5.91c.33-1.19,1.23-4.66,1.76-6.67-1.49,1.47-4,4-4.91,4.86"/><path class="cls-1" d="M195.72,25a19.68,19.68,0,0,1,4.81-3.5l.55-.31a5.85,5.85,0,0,1,2.42-.59,1.74,1.74,0,0,1-.07-.29.41.41,0,0,1,.17-.41l0-.07a.42.42,0,0,1,.08-.39l-.13-.18a.42.42,0,0,1,0-.49.44.44,0,0,1,.33-.16l.14,0h0a4.84,4.84,0,0,1-2.3-.94c-.39-.44-.78-1.82-1.16-4.1a1.23,1.23,0,0,1-.6-.33,15.52,15.52,0,0,1-3.85,1.06,1.14,1.14,0,0,1-.28,0c-.93-.18-2.41-2-3-2.81a.64.64,0,0,0-.06.16c-.08.2-.16.4-.25.58a2.27,2.27,0,0,1-.33.49.49.49,0,0,0-.13.51,4.62,4.62,0,0,0,.37.93,6,6,0,0,1,.74,2.49c0,.19,0,.41,0,.64a19.65,19.65,0,0,1-.63,5.9c-.32,1.16-1.24,4.67-1.76,6.67,1.45-1.43,4-4,4.9-4.86"/><path class="cls-1" d="M175.81,35.78l.56-.33a19.63,19.63,0,0,1,5.43-2.4c1.19-.31,4.65-1.26,6.66-1.81-2-.55-5.5-1.51-6.66-1.81A19.5,19.5,0,0,1,176.35,27c-.19-.12-.37-.23-.54-.32A6.19,6.19,0,0,1,174,24.8a4.57,4.57,0,0,0-.62-.78c-.2-.16-.28-.16-.32-.16l-.18,0a2,2,0,0,1-.44.05h-.16c-.19,0-.41,0-.61-.07l-.17,0c.39.93,1.23,3.12.92,4-.26.76-2,2.24-2.94,3a1.19,1.19,0,0,1,.06.37,1.09,1.09,0,0,1-.06.36c2.38,2,2.82,2.68,2.94,3,.31.91-.53,3.1-.92,4l.17,0,.61-.08h.09a3.89,3.89,0,0,1,.49,0l.2,0s.12,0,.32-.17a4.61,4.61,0,0,0,.63-.78,6,6,0,0,1,1.78-1.89"/><path class="cls-1" d="M207.63,27.85a4.8,4.8,0,0,1,.34-2.48s0,.07,0,.07a.41.41,0,0,1-.35.34h-.05a.43.43,0,0,1-.38-.23,2.14,2.14,0,0,1-.1-.22H207a.42.42,0,0,1-.3-.12l-.05-.06a.44.44,0,0,1-.45-.05,1,1,0,0,1-.21-.21,6,6,0,0,1-1.73,1.8l-.52.31a19.26,19.26,0,0,1-5.46,2.42c-1.2.31-4.68,1.26-6.67,1.81,2,.55,5.48,1.51,6.67,1.81a19.63,19.63,0,0,1,5.43,2.4l.55.33A6,6,0,0,1,206,37.67a4.2,4.2,0,0,0,.62.78c.21.17.28.17.32.17l.18,0a3.05,3.05,0,0,1,.52-.05h.06l.63.08.18,0c-.4-.94-1.23-3.13-.92-4,.18-.55,1.15-1.55,2.88-3a1.24,1.24,0,0,1,0-.82c-1.08-.89-2.64-2.26-2.88-3"/><path class="cls-1" d="M190,0a31.23,31.23,0,1,0,31.27,31.23A31.25,31.25,0,0,0,190,0m24.61,19.41a1,1,0,0,1-.19.26,12.74,12.74,0,0,1-1.87,1.49l-.48.34s-.18.14-.66.57a1.57,1.57,0,0,1,.13,1,23.68,23.68,0,0,1-.89,2.21c-.3.68-.69,1.6-.79,1.91a23.35,23.35,0,0,0,2.39,2.88,1.2,1.2,0,0,1,.83,1.14,1.19,1.19,0,0,1-.83,1.14,23.19,23.19,0,0,0-2.39,2.88c.08.28.5,1.23.8,2a22.24,22.24,0,0,1,.88,2.17,2.4,2.4,0,0,1-.53,1.76,2.87,2.87,0,0,0-.27.48.53.53,0,0,0,.15.35,3.69,3.69,0,0,1,.7-.1l.07-.12a.41.41,0,0,1,.36-.21l.13,0,1,.36.07,0a2.32,2.32,0,0,1,1.16,3l-.1.17-.11.18a2.09,2.09,0,0,1-1.75.89,2.77,2.77,0,0,1-1.4-.39l-.07-.05-.84-.72a.42.42,0,0,1-.09-.53l.07-.12a3,3,0,0,1-.25-.64h-.14a.47.47,0,0,0-.24,0,3.67,3.67,0,0,0-.29.48c-.28.52-.64,1.17-1.25,1.34-.35.09-1.29.2-2.3.32-.77.09-1.8.21-2.11.28a23.44,23.44,0,0,0-1.29,3.46,1.44,1.44,0,0,1,.09.45,1.21,1.21,0,0,1-1.21,1.2,1.16,1.16,0,0,1-1-.49,24,24,0,0,0-3.59-.6h0c-.19.2-.81,1-1.26,1.65-.62.83-1.2,1.61-1.46,1.87a1.76,1.76,0,0,1-1.22.41v0a1.2,1.2,0,0,1,.21.13.44.44,0,0,1,.12.42.43.43,0,0,1-.31.3h0c0,.07,0,.18.07.27a1.75,1.75,0,0,1,.11.62,3.58,3.58,0,0,1-.6,2.12,2.25,2.25,0,0,1-3.85,0,3.57,3.57,0,0,1-.6-2.11,1.8,1.8,0,0,1,.11-.62c0-.08.06-.2.07-.27h0a.43.43,0,0,1-.31-.3.41.41,0,0,1,.13-.42.63.63,0,0,1,.2-.13v0a1.76,1.76,0,0,1-1.22-.41c-.26-.26-.84-1-1.45-1.87-.45-.6-1.05-1.41-1.27-1.65h0a23.27,23.27,0,0,0-3.76.65.39.39,0,0,1-.21.06,1.18,1.18,0,0,1-1.68-1.1v-.07A24,24,0,0,0,177,46.18c-.29-.07-1.33-.19-2.1-.28-1-.12-2-.23-2.31-.32a1.73,1.73,0,0,1-.93-.78,1,1,0,0,1-.47.12,1.07,1.07,0,0,1-.32-.05l-.06,0a1,1,0,0,0-.08.11,3.91,3.91,0,0,1-.47.59,3.84,3.84,0,0,1-2.32,1.12,1.67,1.67,0,0,1-1-.31,2,2,0,0,1-.9-1.13,2.09,2.09,0,0,1-.54-1.34c-.13-1.42,1.42-2.23,2.36-2.48a4.49,4.49,0,0,1,.76-.11h.14v-.06a.93.93,0,0,1,.45-.65,1.72,1.72,0,0,1-.21-1.2,23.19,23.19,0,0,1,.88-2.18c.3-.7.71-1.63.8-1.94a24.88,24.88,0,0,0-2.36-2.86,1.2,1.2,0,0,1,0-2.33,23.25,23.25,0,0,0,2.37-2.86c-.09-.26-.49-1.2-.8-1.9A23.68,23.68,0,0,1,169,23.1a.75.75,0,0,1,0-.26,1.76,1.76,0,0,1-.47-.18,1.53,1.53,0,0,1-.76-1.13,1.74,1.74,0,0,1-.38-.14,1.21,1.21,0,0,1-.58-.82.69.69,0,0,1-.28-.11.85.85,0,0,1-.42-.57l-.12-.06c-.65-.37-.78-1.25-.32-2.35a1.74,1.74,0,0,1,.67-.78,1.33,1.33,0,0,1,1.3-.89,1.19,1.19,0,0,1,.6.15l.06,0a.89.89,0,0,1,.36-.07.92.92,0,0,1,.43.11.71.71,0,0,1,.23.19,1.23,1.23,0,0,1,.39-.06,1.18,1.18,0,0,1,.61.16,1.26,1.26,0,0,1,.31.25,1.63,1.63,0,0,1,.59-.11,1.61,1.61,0,0,1,.77.2,1.55,1.55,0,0,1,.39.33.93.93,0,0,1,.25-.1c.35-.1,1.33-.21,2.36-.33.74-.09,1.73-.2,2-.27A25.85,25.85,0,0,0,178.26,13a1.13,1.13,0,0,1-.12-.51,1.2,1.2,0,0,1,1.2-1.2,1.17,1.17,0,0,1,.88.39,23.94,23.94,0,0,0,3.74.64h0c.17-.2.78-1,1.23-1.61.63-.85,1.22-1.64,1.48-1.91a2,2,0,0,1,1.43-.41h.8a.5.5,0,0,1-.08-.2.41.41,0,0,1-.07-.11.36.36,0,0,1-.22-.23h-.07a.41.41,0,0,1-.28-.69l.06-.07s0-.1,0-.16a7.24,7.24,0,0,1-.17-.9c0-1,.3-2.15,1.12-2.25a1.26,1.26,0,0,1,1-.39h.47c.68,0,1.82.34,1.82,2.62a6.82,6.82,0,0,1-.18,1l0,.1.05.05a.41.41,0,0,1,.11.43.42.42,0,0,1-.35.28H192a.45.45,0,0,1-.23.24l-.06.1a.44.44,0,0,1-.07.19h.79a1.93,1.93,0,0,1,1.42.42c.26.26.86,1.05,1.48,1.89.44.59,1,1.38,1.24,1.62h0a25,25,0,0,0,3.6-.6,1.2,1.2,0,0,1,2.12.77v.08l-.05.24a23.68,23.68,0,0,0,1.32,3.54c.26.05,1.28.17,2,.26,1,.12,2,.23,2.36.33a1.64,1.64,0,0,1,.83.63l.84-.28.52-.24a12.71,12.71,0,0,1,2.24-.89,1.15,1.15,0,0,1,.26,0c1,0,1.68,1.08,1.76,1.2a2.16,2.16,0,0,1,.23.58.2.2,0,0,1,0,.11v1.23a.46.46,0,0,1,0,.2"/><path class="cls-1" d="M205.24,42.92a3,3,0,0,1-.27-.54c-.08-.21-.09-.26-.37-.36a4.61,4.61,0,0,0-1-.15,5.93,5.93,0,0,1-2.53-.6l-.58-.33a19.61,19.61,0,0,1-4.78-3.48c-.86-.88-3.43-3.41-4.9-4.86.52,2,1.43,5.5,1.76,6.67a19.6,19.6,0,0,1,.63,5.9c0,.23,0,.45,0,.64a6.09,6.09,0,0,1-.74,2.5,4.36,4.36,0,0,0-.37.92c0,.29,0,.33.13.5a2.86,2.86,0,0,1,.33.5,5.72,5.72,0,0,1,.24.57,1.11,1.11,0,0,0,.07.16c.6-.79,2.09-2.62,3-2.81l.28,0a16.08,16.08,0,0,1,3.93,1.09,1.36,1.36,0,0,1,.51-.29c.23-1.42.65-3.58,1.17-4.17s2.95-1.09,3.95-1.21l-.1-.13c-.13-.17-.27-.34-.38-.5"/></g></g></svg>